<svg width="90" height="90" viewBox="0 0 90 90" fill="none" xmlns="http://www.w3.org/2000/svg">
<path d="M45 66.825C57.0536 66.825 66.825 57.0536 66.825 45C66.825 32.9464 57.0536 23.175 45 23.175C32.9464 23.175 23.175 32.9464 23.175 45C23.175 57.0536 32.9464 66.825 45 66.825Z" stroke="white" stroke-width="8.55"/>
<path d="M14.4 53.4376C19.06 53.4376 22.8376 49.66 22.8376 45C22.8376 40.34 19.06 36.5624 14.4 36.5624C9.74004 36.5624 5.9624 40.34 5.9624 45C5.9624 49.66 9.74004 53.4376 14.4 53.4376Z" fill="white"/>
<path d="M52.9928 14.2808C50.6628 18.3165 52.0456 23.4768 56.0812 25.8068C60.1168 28.1368 65.2772 26.7541 67.6072 22.7184C69.9372 18.6828 68.5544 13.5224 64.5188 11.1924C60.4832 8.86247 55.3228 10.2452 52.9928 14.2808Z" fill="white"/>
<path d="M67.6072 67.2816C65.2772 63.2459 60.1168 61.8632 56.0812 64.1932C52.0456 66.5232 50.6628 71.6835 52.9928 75.7192C55.3228 79.7548 60.4832 81.1375 64.5188 78.8076C68.5544 76.4776 69.9372 71.3172 67.6072 67.2816Z" fill="white"/>
</svg>
